<svg width="537" height="502" viewBox="0 0 537 502" xmlns="http://www.w3.org/2000/svg">
                <linearGradient x1="0%" y1="50%" x2="100%" y2="75%" id="yellow-pink">
                  <stop stop-color="#ffde4d" offset="0"></stop>
                  <stop stop-color="#ff31a3" offset="1"></stop>
                </linearGradient>
                <path transform="translate(-28 -3)" d="M243.358 14.088c38.422 22.008 52.309 70.656 31.478 109.807l-1.157 2.317c-19.906 37.529-6.25 84.093 31.015 104.71 37.264 20.618 84.018 7.645 105.08-29.189l1.39-2.316c22.219-38.688 71.519-52.587 110.866-30.811 39.58 22.007 53.93 72.046 31.941 111.66-64.807 116.99-212.013 159.151-328.667 94.286-117.116-64.865-159.472-212.201-94.665-329.19C152.396 5.98 201.464-8.383 241.043 12.698l1.158.695 1.157.695z" fill="url(#yellow-pink)"></path>
              </svg>